<svg xmlns="http://www.w3.org/2000/svg" width="563" height="150" viewBox="14.5 84.5 563 150"><path d="M192.886 180.33c0-4.14.945-5.087 4.726-4.14a66.67 66.67 0 0 0 17.256 2.246c8.03 0 10.988-1.297 10.988-5.082 0-2.95-1.537-4.37-7.562-7.094l-12.765-5.67c-8.034-3.428-11.698-7.44-11.698-16.07 0-10.987 6.854-16.07 22.57-16.07 4.843 0 9.454.595 13.704 1.772 4.137 1.302 4.963 2 4.963 5.9v1.415c0 4.14-1.06 5.086-4.844 4.02-4.5-1.3-9.217-1.9-14.062-1.9-7.684 0-10.397 1.417-10.397 4.842 0 2.835 1.417 4.137 5.55 6.03l13.7 5.9c8.622 3.663 12.643 7.798 12.643 16.662 0 11.346-7.205 16.543-23.87 16.543-5.8 0-11.23-.7-16.2-2-3.896-1.063-4.726-1.9-4.726-5.793l.001-1.53zm73.094-13.7c0 8.035 3.07 11.578 13.588 11.578s13.474-3.543 13.474-11.578v-31.55c0-4.257 1.064-5.32 5.318-5.32h1.537c4.256 0 5.32 1.064 5.32 5.32v31.55c0 15.24-7.683 23.043-25.648 23.043-17.134 0-25.758-7.686-25.758-23.043v-31.55c0-4.257 1.063-5.32 5.315-5.32h1.536c4.258 0 5.318 1.064 5.318 5.32v31.55zm55.374-13c0-16.898 9.926-25.172 26.944-25.172 18.314 0 27.06 8.036 27.06 25.172v10.287c0 17.13-8.152 25.758-24.577 25.758-8.392 0-14.18-2.6-17.374-7.686v24.703c0 4.252-1.063 5.316-5.314 5.316h-1.423c-4.25 0-5.315-1.064-5.315-5.316l-.002-53.062zm41.837.36c0-9.93-3.076-14.184-14.774-14.184-11.466 0-15 4.253-15 14.184v10.157c0 9.813 3.3 14.064 15 14.064 11.46 0 14.774-4.137 14.774-14.064V153.98zm79.353 4.12c-.475 4.373-1.65 5.436-6.022 5.436h-32.854v2.6c0 8.625 4.966 12.056 16.895 12.056 4.848 0 9.932-.6 15.367-1.894 3.775-.943 4.842 0 4.842 4.137v1.537c0 3.896-.705 4.727-4.842 5.8-4.73 1.3-9.8 1.892-15.367 1.892-19.85 0-29.067-7.445-29.067-25.3v-10.28c0-17.137 8.743-25.65 26.234-25.65 16.424 0 25.048 8.393 25.048 24.465.004 1.772-.117 3.428-.234 5.2zm-38.876-4.5h27.652v-2.957c0-7.796-4.6-11.697-13.943-11.697-9.104 0-13.7 3.9-13.7 11.697v2.957zm67.424 29.437c0 4.252-1.064 5.317-5.315 5.317h-1.535c-4.257 0-5.317-1.065-5.317-5.317v-33.68c0-13.945 7.444-20.917 22.333-20.917.95 0 1.774 0 2.363.115 3.9.476 4.966 1.42 4.966 5.554v1.655c0 3.9-.827 4.724-4.966 4.135-.6-.117-1.412-.117-2.363-.117-7.917 0-10.16 3.188-10.16 10.4l-.005 32.854zm32.478-18.912v-10.157c0-16.55 8.863-25.527 27.18-25.527 18.785 0 26.945 8.505 26.945 25.527v10.157c0 16.428-8.865 25.53-26.945 25.53-18.904 0-27.18-8.512-27.18-25.53zm41.95-10.157c0-9.93-3.307-14.184-14.77-14.184s-15.005 4.253-15.005 14.184v10.157c0 9.813 3.3 14.064 15.005 14.064 11.466 0 14.77-4.137 14.77-14.064v-10.157z" fill="#3e3935"/><path d="M45.142 158.94c.844 4.694 2.322 9.2 4.1 13.543 1.17 2.875 8.313 22.106 33.022 28.555.367.097.738.1 1.086.1 3.46 0 4.858-3.64 4.858-5.154 0-2.94-1.747-5.008-5.054-5.98l-.1-.027c-9.863-3.074-20.564-9.5-28.526-20.688-4.093-5.745-7.178-12.666-8.857-19.75-.128-.545-.522-.794-.864-.754s-.522.187-.5 1.143a54.34 54.34 0 0 0 .855 9zM58.7 148.578c1.563 5.397 5.84 11.945 9.52 16.008 2.444 2.7 9.465 8.475 14.742 10.73a3.55 3.55 0 0 0 1.385.283c1.504 0 3.3-.983 3.795-3.746.456-2.492-.85-4.7-2.97-5.32-4.7-1.37-11.458-4.813-14.205-7.182-3.524-3.042-8.047-8.086-10.4-12.105-.547-.936-1.08-1.137-1.658-.873-.763.35-.43 1.444-.2 2.205zm-31.657 24.1c1.478 8.23 7.883 21.776 10.98 25.9 10.708 14.293 24.723 24.286 43.554 28.125 2.668.544 4.7-1.27 4.7-1.27a5.7 5.7 0 0 0 2.022-4.383c0-1.885-1.554-4.96-4.36-5.584-12.975-2.883-24.838-9.45-34.043-19.248-3.096-3.3-14.996-16.812-17.618-35.03-1.338-9.292-1.78-17.933 1.1-27.646.334-1.128-.082-1.386-.287-1.5-.13-.08-.787-.105-1.167.922-.16.436-.38.85-.563 1.276-5.115 11.915-6.678 25.243-4.306 38.44zm105.06-12.177c-.844-4.694-2.32-9.2-4.1-13.545-1.17-2.873-8.313-22.104-33.02-28.554-.368-.096-.738-.1-1.087-.1-3.46 0-4.856 3.637-4.856 5.154 0 2.94 1.747 5.006 5.054 5.978l.1.03c9.862 3.073 20.563 9.507 28.526 20.686 4.093 5.747 7.178 12.667 8.856 19.748.13.548.523.795.865.755s.52-.187.5-1.143c-.033-2.987-.317-5.997-.855-9zm-13.547 10.352c-1.563-5.397-5.84-11.945-9.52-16.008-2.444-2.702-9.466-8.475-14.74-10.73a3.52 3.52 0 0 0-1.387-.283c-1.504 0-3.3.983-3.794 3.746-.456 2.492.848 4.7 2.97 5.318 4.7 1.37 11.458 4.812 14.205 7.183 3.523 3.042 8.048 8.086 10.4 12.105.547.937 1.08 1.137 1.658.873.763-.35.43-1.446.2-2.205zm31.656-24.1c-1.48-8.23-7.884-21.776-10.98-25.9C128.514 106.56 114.5 96.568 95.668 92.73c-2.668-.544-4.7 1.27-4.7 1.27-1.28 1.074-2.02 2.675-2.02 4.383 0 1.885 1.553 4.958 4.36 5.583 12.975 2.885 24.838 9.455 34.044 19.248 3.095 3.293 14.996 16.813 17.62 35.03 1.337 9.292 1.78 17.933-1.1 27.645-.333 1.128.082 1.386.287 1.5.13.078.788.105 1.167-.922.16-.438.38-.852.563-1.275 5.113-11.92 6.677-25.246 4.305-38.44z" fill="#eb6852"/><path fill="#3e3935" d="M565.205 117.472c3.23 0 5.836 2.642 5.836 5.872s-2.605 5.885-5.836 5.885c-3.214 0-5.79-2.656-5.79-5.885s2.577-5.872 5.79-5.872zm0 10.595c2.545 0 4.55-2.05 4.55-4.724s-2.005-4.71-4.55-4.71-4.55 2.036-4.55 4.71 2.003 4.724 4.55 4.724zm-.73-1.575h-1.2v-6.396h2.212c1.24 0 2.16.876 2.16 2.005 0 .9-.57 1.624-1.398 1.894l1.435 2.497h-1.386l-1.336-2.386h-.478v2.386zm.825-3.437c.718 0 1.116-.35 1.116-.938 0-.62-.398-.968-1.116-.968h-.825v1.907l.825-.001z"/></svg>